PathFileType	4	(X/Y/Z)	C:\Users\WrightLab\Desktop\Jo\P1.2Trial9.trc
DataRate	CameraRate	NumFrames	NumMarkers	Units	OrigDataRate	OrigDataStartFrame	OrigNumFrames
100.00	100.00	       12	19	mm	100.00	337	       538
Frame#	Time	Headset_Front			Headset_Back			Headset_Left			Headset_Right			Left_Shoulder			Right_Shoulder			Sternum			C7			Left Elbow			Right Elbow			Left Wrist			Right Wrist			Left ASIS			Right ASIS			S2			Left Knee			Right Knee			Left Ankle			Right Ankle			
		X1	Y1	Z1	X2	Y2	Z2	X3	Y3	Z3	X4	Y4	Z4	X5	Y5	Z5	X6	Y6	Z6	X7	Y7	Z7	X8	Y8	Z8	X9	Y9	Z9	X10	Y10	Z10	X11	Y11	Z11	X12	Y12	Z12	X13	Y13	Z13	X14	Y14	Z14	X15	Y15	Z15	X16	Y16	Z16	X17	Y17	Z17	X18	Y18	Z18	X19	Y19	Z19	

337	3.360	74.70903	1473.84851	1412.74463	146.30751	1524.45825	1120.52271	225.43091	1500.66260	1269.16370	-4.48223	1479.83167	1285.29895	341.26071	1281.65015	1156.92737	-65.54839	1283.49744	1276.40210	172.86754	1228.02185	1339.96094	108.42296	1330.53369	1106.69006	372.09705	1000.58893	1072.21606	-127.12014	1036.37048	1327.69678	486.17288	798.92749	1111.80176	-20.69784	880.49567	1532.78723	315.30054	920.51953	1326.91125				118.49158	929.68634	1057.06543	363.18439	561.19855	1448.93469	35.45112	445.95068	1300.93237	445.11520	199.41537	1380.15552	120.53748	117.03802	1212.36694	
338	3.370	76.38165	1473.36194	1421.44604	149.52994	1524.00476	1129.34570	228.28369	1499.33813	1278.41455	-2.21640	1478.75122	1293.76721	344.65536	1280.77332	1168.69800	-63.87767	1282.11450	1283.12512	173.32817	1226.68445	1349.88220	112.26940	1330.14954	1115.56006	375.39078	999.38940	1083.71118	-124.41731	1036.02808	1335.91357	489.22238	798.42065	1121.89587	-16.01202	883.10345	1543.52466	316.25424	919.21033	1337.19873				124.39353	929.22137	1065.30933	357.46036	558.95648	1460.14258	35.76765	445.21667	1304.35266	450.90973	200.16621	1411.00867	120.91794	116.13898	1212.86963	
339	3.380	77.68698	1472.40063	1429.73535	152.51410	1522.96802	1138.90222	230.25385	1498.53540	1287.71606	0.16413	1478.00330	1302.20496	347.71979	1279.85266	1180.53589	-62.23058	1281.00818	1290.02502	174.15306	1225.04065	1359.64929	116.43228	1329.18848	1124.40637	378.77557	999.45850	1094.67798	-121.25409	1035.31726	1344.20715	492.11319	797.91803	1131.49011	-11.18871	885.01501	1551.82532	317.23096	918.31299	1348.00537				130.83226	928.90973	1073.98608	354.02283	556.60181	1471.48108	37.18089	444.25082	1307.92981	454.91251	201.82475	1442.56274	121.04839	115.97284	1213.62891	
340	3.390	79.32957	1471.17102	1439.64795	156.00378	1521.90613	1148.34534	232.60669	1497.40479	1297.86890	2.52386	1476.89465	1310.70496	351.00449	1279.00671	1192.93286	-60.26185	1279.44092	1296.83508	174.92616	1223.88342	1369.11841	119.78960	1328.36670	1133.97644	383.53903	999.06122	1106.43628	-118.82478	1034.81226	1352.66150	495.41547	797.49713	1142.66675	-7.61631	886.33765	1561.36609	317.79950	917.08319	1358.54614				136.65065	927.56964	1082.96814	350.94821	553.65826	1484.04480	38.04078	443.86496	1311.65698	456.75174	204.79478	1472.39099	121.92500	114.98759	1214.48511	
341	3.400	80.77436	1469.88745	1447.75012	158.88490	1520.57703	1157.71362	234.98483	1495.86487	1307.74963	4.29036	1475.98804	1319.21948	354.23660	1277.80359	1204.28796	-57.76696	1278.47705	1303.72351	175.71786	1222.27380	1378.86841	123.74848	1327.19800	1143.01941	386.62909	998.02863	1117.42273	-116.01854	1033.84143	1360.54480	498.47202	796.22296	1152.92163	-3.65906	887.80432	1570.62195	318.83435	915.70483	1369.39624				141.77585	926.38019	1091.75305	345.56339	549.61194	1493.16736	39.03976	442.49094	1315.46582	457.56537	209.21945	1501.47021	121.89220	114.68505	1215.20728	
342	3.410	81.89029	1468.30261	1457.29504	162.69870	1519.24329	1167.20105	237.24382	1494.58704	1317.87585	6.79543	1474.77332	1327.71509	356.54767	1276.36621	1217.20667	-55.90779	1276.77551	1310.94287	176.41362	1220.87244	1388.39539	127.68222	1326.26465	1151.81909	390.38971	997.11438	1128.86023	-113.27872	1032.53857	1367.80212	501.62894	795.85309	1164.21777	-0.54803	889.44757	1580.41467	318.84900	913.51477	1380.12512				146.58943	925.54138	1100.45996	341.63214	543.51575	1501.32874	39.45655	441.27240	1319.49927	456.54224	214.01543	1528.13452	122.28957	113.76266	1215.68921	
343	3.420	83.37839	1466.94800	1466.15710	165.16032	1518.33276	1176.84705	239.61372	1492.87817	1327.30469	9.45844	1473.04614	1336.17334	360.14731	1274.98608	1228.24646	-53.65214	1275.43176	1318.14868	177.08263	1219.43591	1398.45679	131.50121	1324.86670	1161.47925	394.91721	996.11017	1140.98633	-110.72774	1030.95520	1375.43518	504.44342	794.32196	1176.72229	1.54151	889.41199	1588.28662	319.80795	912.33984	1391.32800				151.28299	923.85199	1109.60559	337.04514	536.93787	1506.81433	41.25137	440.06607	1323.54028	453.71335	219.57045	1552.31494	122.78465	112.59193	1216.39722	
344	3.430	84.56651	1465.53662	1475.22778	168.20062	1516.79907	1186.44128	242.23601	1491.70691	1338.09570	11.45167	1471.68640	1344.76160	363.23788	1273.61768	1241.24988	-51.50932	1273.68152	1325.07971	178.23796	1217.49915	1407.72644	135.71132	1323.02319	1170.67163	398.52634	994.99994	1153.08240	-108.26934	1029.46875	1382.60400	508.58069	792.91565	1189.06689	4.24843	889.04419	1596.50403	321.82452	910.75946	1403.52393				155.92604	922.37158	1118.73181	333.53857	531.52667	1513.70349	42.21349	439.22333	1328.31299	448.65912	224.62549	1574.73145	123.22009	111.65440	1216.79785	
345	3.440	85.43478	1463.61462	1484.66077	172.64366	1515.18164	1196.28162	243.76338	1490.13062	1348.07690	13.02511	1470.39014	1353.45361	366.40433	1272.31445	1253.32751	-49.44412	1272.30286	1332.71448	179.29706	1216.46716	1417.58093	139.35675	1321.53479	1180.24500	403.07651	993.45435	1166.11035	-106.41202	1027.78174	1390.17212	511.87299	791.09961	1202.76550	6.16228	888.65381	1604.51990	318.62311	908.21466	1412.70044				160.22911	920.77228	1127.69702	331.68219	527.51025	1520.89746	44.22863	437.51831	1333.79761	444.38696	229.96123	1595.54895	123.16903	111.19142	1217.31567	
346	3.450	87.02751	1461.89148	1493.80872	176.12242	1513.62073	1205.88354	245.79123	1488.53857	1358.38354	15.48825	1468.33850	1361.99316	369.19016	1270.55969	1265.10315	-47.40638	1270.37366	1340.33032	180.20320	1214.48328	1427.81384	143.65553	1320.06506	1189.98657	406.66776	992.13489	1178.42639	-104.35249	1025.90601	1397.46826	515.02698	789.38934	1214.83118	7.07248	886.71844	1611.93372	319.14905	906.49048	1424.33997				163.79524	919.17499	1137.26282	330.44928	526.25598	1530.27747	45.14001	436.64230	1339.63000	439.14148	234.53479	1615.28638	124.15138	110.05843	1217.81201	
347	3.460	88.16415	1460.17725	1502.52246	179.68925	1512.62585	1216.11096	248.36725	1486.81677	1368.52722	18.01000	1466.48352	1370.50732	372.22949	1269.11670	1277.61267	-45.04156	1268.79138	1347.98438	181.77483	1213.12500	1437.67749	147.18478	1317.97546	1199.41418	411.30969	990.01001	1191.45239	-102.66802	1024.37439	1404.30750	518.74518	787.61072	1229.20520	8.20890	884.72577	1619.10132	318.99100	903.86218	1434.54553				168.60182	917.02850	1147.35120	328.53110	526.52533	1539.57227	46.85282	434.94455	1345.73486	432.11584	237.20622	1632.48169	124.53133	109.17476	1218.03076	
348	3.470	88.75488	1458.30627	1512.11609	182.92627	1510.58496	1225.55896	250.43221	1485.09802	1379.30591	19.61787	1464.87500	1378.53040	375.45544	1267.65527	1290.19739	-42.34370	1266.91370	1356.00439	183.36179	1211.95959	1448.38940	151.30283	1316.21021	1209.55273	414.65271	988.22382	1204.13440	-101.12565	1022.19714	1411.12012	521.79596	785.52350	1243.44275	8.04238	881.70587	1625.53064	318.57394	901.88251	1446.87769				172.46336	914.99622	1156.92896	327.79730	526.14838	1549.34253	48.83420	432.77618	1351.85828	427.14847	240.19450	1648.53662	124.76462	108.94792	1218.56726	
